<?xml version="1.0" encoding="utf-8"?>
<!-- Generator: Adobe Illustrator 20.1.0, SVG Export Plug-In . SVG Version: 6.00 Build 0)  -->
<svg version="1.1" id="Layer_1" xmlns="http://www.w3.org/2000/svg" xmlns:xlink="http://www.w3.org/1999/xlink" x="0px" y="0px"
	 viewBox="0 0 331.9 123.6" style="enable-background:new 0 0 331.9 123.6;" xml:space="preserve">
<style type="text/css">
	.st0{fill:none;}
	.st1{clip-path:url(#SVGID_2_);}
	.st2{clip-path:url(#SVGID_5_);}
	.st3{clip-path:url(#SVGID_6_);fill:#FFFFFF;}
</style>
<rect class="st0" width="331.9" height="123.6"/>
<g>
	<g>
		<g id="Kobalt_Logo">
			<defs>
				<rect id="SVGID_1_" width="331.9" height="123.6"/>
			</defs>
			<clipPath id="SVGID_2_">
				<use xlink:href="#SVGID_1_"  style="overflow:visible;"/>
			</clipPath>
			<g class="st1">
				<g>
					<defs>
						<rect id="SVGID_3_" width="331.9" height="123.6"/>
					</defs>
					<defs>
						<rect id="SVGID_4_" width="331.9" height="123.6"/>
					</defs>
					<clipPath id="SVGID_5_">
						<use xlink:href="#SVGID_3_"  style="overflow:visible;"/>
					</clipPath>
					<clipPath id="SVGID_6_" class="st2">
						<use xlink:href="#SVGID_4_"  style="overflow:visible;"/>
					</clipPath>
					<path class="st3" d="M312.3,34.8v17.4h-10.8v36.6h-19.6V52.2h-10.8V34.8H312.3z M258.9,34.8h-19.6v54h36.1V71.5h-16.5V34.8z
						 M177.4,73.9c0,11.1-10.3,14.9-19.8,14.9h-26.7v-54h26.4c8.8,0,18.4,3.5,18.4,13.9c0,6-2.9,9.7-7.9,12v0.4
						C173.7,63.1,177.4,67.4,177.4,73.9 M149.1,55.6h1.7c2.8,0,7.2,0.1,7.2-3.9c0-3.9-4.1-4-6.9-4h-2V55.6z M159.2,71.4
						c0-4.5-5-4.4-8.2-4.4h-1.9v8.9h2.2C154.5,75.9,159.2,75.8,159.2,71.4 M19.6,88.8h19.6V68h0.4l11.1,20.8h21.9L57,61.8l15.6-27
						H50.7L39.6,55.5h-0.4V34.8H19.6V88.8z M176.2,88.8H197l1.7-6.7h14.8l1.7,6.7H236l-19-54h-21.7L176.2,88.8z M210.3,69.2h-8.4
						l4-16.1h0.4L210.3,69.2z M112.5,34.8l15.6,27l-15.6,27H81.4l-15.6-27l15.6-27C81.4,34.8,112.5,34.8,112.5,34.8z M110,61.8
						l-6.5-11.3H90.4l-6.5,11.3l6.5,11.3h13.1L110,61.8z"/>
					<path class="st3" d="M307.4,85.2h-1.2l-0.1,0.1v3.4l-0.1,0.1h-0.5l-0.1-0.1v-3.4l-0.1-0.1h-1.2l-0.1-0.1v-0.4l0.1-0.1h3.1
						l0.1,0.1L307.4,85.2L307.4,85.2z M312.2,88.8h-0.5l-0.1-0.1v-2.8h-0.1l-1.2,2.8l-0.1,0.1h-0.5l-0.1-0.1l-1.2-2.8h-0.1v2.8
						l-0.1,0.1h-0.5l-0.1-0.1v-4l0.1-0.1h0.6l0.1,0.1l1.3,3.3h0.1l1.3-3.3l0.1-0.1h0.6l0.1,0.1L312.2,88.8L312.2,88.8z"/>
				</g>
			</g>
		</g>
	</g>
</g>
</svg>
