<?xml version="1.0" encoding="utf-8"?>
<!-- Generator: Adobe Illustrator 22.1.0, SVG Export Plug-In . SVG Version: 6.00 Build 0)  -->
<svg version="1.1" id="Layer_1" xmlns="http://www.w3.org/2000/svg" xmlns:xlink="http://www.w3.org/1999/xlink" x="0px" y="0px"
	 viewBox="0 0 1920 1465.8" style="enable-background:new 0 0 1920 1465.8;" xml:space="preserve">
<style type="text/css">
	.st0{fill:#F5F5F5;}
</style>
<path class="st0" d="M1551.2,122.2h-166.9c-14.1-44.9-31.1-85.7-49-122.2C919.2,0,503,0,86.9,0c98.2,234.5,102.7,415.5,88.3,538
	c-18.4,156.3-78.4,309-125.3,580.5c-9.5,54.9-30.3,184.3,23.4,317.4c5.3,13.1,10.2,23.6,13.7,30.7c416.1,0,832.3,0,1248.4,0
	c-12.7-30.3-23.3-59.8-32.1-88.4h90.4c6.5,0,11.8-5.7,11.8-12.7s-5.3-12.7-11.8-12.7h-97.9c-2.3-8.1-4.4-16.2-6.4-24.2h151.3
	c6.5,0,11.8-5.7,11.8-12.7s-5.3-12.7-11.8-12.7h-157.3c-10-45.5-15.7-88.2-18.6-127.8c-2.4-32.9-2.7-64.4-1.6-94.6l102.7,65.8
	c9.6,6.2,21.8-1.3,22-13.4l1.7-165.1c0.1-12.1-11.9-19.8-21.7-13.9l-99.4,60.5c14.4-121.5,52.7-224.6,87.3-328.3l22.9,100.1
	c2.7,11.8,16.1,16,24.2,7.6l110-114.4c8.1-8.4,4.7-23.1-6-26.5L1379,613c13.4-44.7,24.9-90.4,32.4-138.4h69.3
	c6.5,0,11.8-5.7,11.8-12.7c0-7-5.3-12.7-11.8-12.7H1415c1-8,1.9-16,2.6-24.2h98.3c6.5,0,11.8-5.7,11.8-12.7c0-7-5.3-12.7-11.8-12.7
	h-96.4c2.4-40.6,1.6-83.2-3.6-128.5c-2.9-25.5-7-50.1-12-73.8h88.4c6.5,0,11.8-5.7,11.8-12.7c0-7-5.3-12.7-11.8-12.7h-94.2
	c-2-8.2-4.1-16.2-6.3-24.2h159.4c6.5,0,11.8-5.7,11.8-12.7C1563,127.9,1557.7,122.2,1551.2,122.2z"/>
</svg>
