<?xml version="1.0" standalone="no"?>
<!DOCTYPE svg PUBLIC "-//W3C//DTD SVG 20010904//EN"
 "http://www.w3.org/TR/2001/REC-SVG-20010904/DTD/svg10.dtd">
<svg version="1.0" xmlns="http://www.w3.org/2000/svg"
 width="976.000000pt" height="1280.000000pt" viewBox="0 0 976.000000 1280.000000"
 preserveAspectRatio="xMidYMid meet">
<g transform="translate(0.000000,1280.000000) scale(0.100000,-0.100000)"
fill="#990000" stroke="none">
<path d="M6535 12274 l-521 -524 -56 12 c-52 11 -59 10 -112 -16 -67 -33 -96
-67 -209 -246 -47 -75 -103 -156 -125 -180 -21 -25 -47 -61 -57 -80 -37 -73
-89 -120 -133 -120 -63 0 -155 79 -289 253 -42 53 -79 97 -82 97 -3 0 -19 -37
-34 -83 -58 -169 -118 -310 -250 -587 -74 -157 -155 -337 -180 -400 -41 -105
-58 -156 -117 -366 -20 -72 -52 -129 -81 -147 -84 -52 -278 214 -439 603 -24
58 -45 106 -46 108 -1 1 -26 -7 -57 -18 -115 -43 -191 -167 -307 -505 -81
-235 -119 -314 -173 -360 l-42 -36 1 -177 c1 -169 3 -187 47 -410 70 -350 80
-488 45 -632 -14 -57 -59 -158 -84 -188 l-20 -24 -71 75 c-71 75 -153 187
-190 262 -11 22 -26 70 -33 108 -10 55 -15 65 -26 56 -15 -13 -14 -17 -62 126
-30 88 -162 600 -162 629 0 31 -20 25 -70 -19 -98 -87 -133 -93 -203 -34 -57
49 -62 58 -139 253 -81 205 -115 272 -168 328 -32 33 -58 50 -92 59 -42 12
-47 16 -52 48 -10 60 -60 153 -117 215 -30 33 -113 103 -184 156 -72 54 -152
121 -178 150 -47 52 -77 123 -77 180 0 56 -112 280 -150 300 -47 25 -87 5
-109 -53 -16 -40 -31 -317 -35 -632 -2 -149 -11 -337 -20 -420 -16 -155 -20
-421 -7 -511 l7 -51 -79 1 c-77 1 -79 0 -109 -33 -29 -33 -30 -37 -26 -105 4
-54 19 -109 63 -226 32 -85 66 -186 77 -225 11 -38 42 -115 70 -170 59 -120
70 -183 39 -232 -31 -50 -73 -66 -181 -71 -123 -5 -221 20 -365 94 -58 30
-107 54 -109 54 -3 0 24 -63 59 -141 120 -263 227 -412 555 -769 349 -380 470
-545 470 -641 0 -54 -34 -77 -145 -101 -28 -6 -191 -12 -375 -13 -179 -1 -413
-6 -521 -11 -210 -10 -237 -17 -261 -69 -37 -81 73 -172 412 -344 203 -104
255 -138 257 -171 7 -92 65 -131 365 -246 254 -98 348 -149 348 -191 0 -8 -9
-30 -20 -49 l-21 -32 57 -46 c158 -129 426 -196 784 -196 150 0 331 18 449 46
35 8 65 13 67 11 7 -6 -72 -230 -124 -354 -28 -67 -112 -251 -185 -410 -74
-158 -152 -328 -173 -378 -21 -49 -58 -124 -83 -165 -64 -108 -211 -415 -266
-555 -72 -184 -154 -432 -285 -862 -187 -611 -274 -847 -421 -1143 -87 -174
-208 -370 -299 -485 -26 -33 -59 -86 -74 -117 -42 -89 -116 -150 -302 -247
-202 -106 -245 -133 -288 -181 -42 -47 -53 -94 -36 -157 16 -56 63 -105 124
-128 l45 -17 108 83 c213 167 440 414 612 669 323 479 522 956 872 2095 53
173 137 373 366 870 215 465 626 1295 643 1295 5 0 8 -12 7 -26 -2 -32 19 -43
28 -15 9 29 28 26 93 -15 145 -93 270 -258 592 -786 121 -197 241 -364 250
-347 4 8 13 47 19 87 7 39 21 82 31 94 l18 23 44 -21 c45 -23 101 -66 264
-202 138 -116 203 -151 301 -161 126 -13 367 -95 581 -196 144 -69 218 -114
315 -193 43 -35 80 -62 81 -60 14 17 36 113 36 158 0 112 -57 229 -270 555
-75 116 -147 229 -159 253 -12 24 -53 77 -92 119 -67 72 -109 136 -109 167 0
21 47 74 81 91 71 37 291 27 459 -22 47 -13 123 -44 169 -69 52 -28 89 -43
100 -39 9 4 162 11 340 15 325 9 453 19 591 46 88 18 210 53 210 60 0 3 -11
29 -25 58 -15 31 -68 100 -127 165 -153 168 -219 250 -245 308 -51 110 3 146
258 173 63 7 166 26 229 42 63 17 133 32 155 35 22 2 49 8 60 13 11 5 42 18
70 30 27 11 59 30 70 40 37 34 425 208 575 257 80 26 147 52 149 58 2 5 20 25
39 42 20 18 47 54 61 80 55 101 217 187 601 318 238 82 480 180 480 194 -1 10
-119 91 -178 121 -136 69 -280 101 -695 155 -147 19 -308 44 -357 54 l-89 20
-262 -45 c-145 -24 -315 -49 -379 -55 -133 -13 -322 -6 -396 14 -112 31 -189
91 -223 175 -8 19 -31 40 -64 58 -46 26 -62 29 -137 28 -103 0 -154 -19 -370
-135 -166 -89 -248 -120 -340 -126 -60 -5 -68 -3 -110 26 -35 24 -52 29 -76
25 -21 -4 -40 0 -56 10 -13 8 -62 20 -110 25 -102 12 -147 29 -176 66 -27 34
-22 76 16 148 48 89 208 219 319 257 16 6 111 53 211 104 168 86 201 99 170
68 -16 -16 -7 -23 41 -29 53 -7 91 16 91 55 0 16 -5 33 -11 39 -7 7 22 29 103
73 317 176 498 307 686 497 117 118 141 138 209 168 181 83 238 184 148 264
-44 38 -102 64 -217 95 -200 53 -297 69 -425 67 -142 -2 -195 9 -236 50 -27
28 -29 34 -24 80 15 128 147 311 318 441 38 29 69 60 69 70 0 24 58 130 167
301 121 191 156 265 161 339 4 53 2 59 -27 89 l-32 32 -92 -8 c-150 -13 -251
-12 -280 4 -14 8 -34 30 -43 49 -35 73 2 189 111 352 71 105 115 198 115 241
0 42 -34 92 -82 122 -63 39 -75 74 -54 160 53 215 130 763 155 1097 17 226 24
420 15 419 -5 -1 -243 -237 -529 -525z m-4551 -2602 c-4 -12 -22 -31 -40 -43
-19 -11 -34 -25 -34 -30 0 -5 -4 -9 -9 -9 -9 0 -3 31 13 70 8 20 59 51 68 42
4 -4 5 -17 2 -30z"/>
</g>
</svg>
