<?xml version="1.0" encoding="utf-8"?>
<!-- Generator: Adobe Illustrator 23.0.1, SVG Export Plug-In . SVG Version: 6.00 Build 0)  -->
<svg version="1.1" id="Layer_1" xmlns="http://www.w3.org/2000/svg" xmlns:xlink="http://www.w3.org/1999/xlink" x="0px" y="0px"
	 viewBox="0 0 360.1 446" style="enable-background:new 0 0 360.1 446;" xml:space="preserve">
<style type="text/css">
	.st0{fill:#981B1E;}
</style>
<g transform="translate(0.000000,1280.000000) scale(0.100000,-0.100000)">
	<path class="st0" d="M888,12900.4l74.6-262.8l-14-15.9c-13-14.8-13.9-17.2-15.1-39c-1.5-27.6,4.2-43.1,41.5-111.9
		c15.7-28.7,31.6-61.4,35.4-72.9c4.3-11.3,11.2-26.2,15.5-32.9c16.8-25.1,22.6-50.4,14.6-64.6c-11.4-20.3-53.5-35.7-133.9-47.4
		c-24.7-3.9-45.6-7.9-46.1-8.9s8.5-12.8,20.6-26c44-49.3,78.6-94.1,144-186.8c37.2-52.3,80.6-111,96.4-130.4
		c26.4-32.2,39.8-46.9,96.8-103.9c19.6-19.5,32.2-40.1,32.7-52.7c1.6-36.5-119.3-50.9-273.8-32.4c-23,2.8-42.3,4.7-43.1,4.7
		c-0.5-0.1-2.4-9.6-4.5-21.6c-6.9-44.9,19.3-91.8,107.2-190.3c61.1-68.6,79.7-95.2,84.7-120.9l4-20.1l57.2-31.7
		c54.7-30.3,60.8-32.9,140.7-59c125.5-40.8,171.8-62.5,211.9-99.9c15.8-14.8,40.3-47.6,45.4-61.1l4.1-10.8l-37-9.3
		c-37-9.3-88-15.5-118.8-13.8c-9.1,0.4-27.3,4.3-40.8,8.9c-19.5,6.7-23.7,6.9-22.8,1.8c1.5-7.2,2.9-7.6-51.8,2.8
		c-33.8,6.3-222.7,56.4-232.1,61.6c-10,5.6-11.7-1.9-6.5-26c10.3-47.3,5.9-59.7-25.8-71.6c-26.1-9.5-29.9-9.5-106.7,1
		c-80.7,11-108.5,12.2-136.1,5.2c-16.4-4.3-26.6-9.6-35.7-19c-11.5-11.4-13.7-12.3-24.9-8.1c-21.2,7.6-60.2,8.3-90.5,1.2
		c-16.1-3.7-53.7-17.8-83.6-31.1c-30.4-13.4-66.5-27.1-80.6-30.2c-25.3-5.7-53.6-2.6-72,7.8c-18.1,10.1-110.5,14.6-123.9,5.9
		c-16.6-10.6-17.4-27.1-2.6-44.7c10-12.4,96.6-67.4,197.4-125.7c47.7-27.6,106.6-64.5,131.8-82.5c47.1-33.2,132.1-82.6,163.5-94.7
		l17.7-7l-14.6-25.3c-14.3-24.6-14.3-25.5-9.1-41.1c5.4-15.3,6.5-16.4,29.1-27.4c18.1-8.5,38.6-13.6,84.3-20.6
		c33.2-5.1,71.9-12.4,86.5-15.9c14.2-3.3,44.7-7.3,67.5-8.2c49.4-2.7,71.7-10.6,81.8-29.4c10.5-19,8.1-35.5-9.9-71.2
		c-20.6-40.6-46.4-67.6-96.4-100.6c-20.2-13.3-36.8-24.7-37.1-25.4c-0.5-1,24.7-3.7,56.1-6.5c106.5-8.9,173.9-1.4,348.3,39.7
		c185.7,43.7,260.7,52.9,291.7,35.5c17.4-9.8,18.7-24.9,6.3-65c-3.1-10.1-30.7-63.7-63.7-123.2c-32.1-57.9-72.8-134.2-90.7-169.9
		c-34.8-69.5-37.4-79.5-25-96.6c19.4-26.6,68.7-7.6,185.4,70.6c70.3,46.6,90.6,57.2,101.6,51.9c30.9-14.4,54-2.8,145.4,73.1
		c77.6,64.1,111,85.2,124.5,77.6c2.6-1.4,8-8.3,12.2-15.3l6.5-12.6l25.1,10c70.2,27.6,140.3,101.9,205.1,217.3
		c27.1,48.4,54.1,110,66.4,153.1c3.8,12.7,7.6,23.3,8.6,23.6c3.2,1.2,61.1-64.8,91.7-104c16.5-21.2,60.6-81.5,98.7-133.8
		c37.5-52.4,78.2-108.4,90.5-124.2c12-15.6,29.5-41.1,38.2-56.6c23.2-40.2,95.6-143.1,130.8-186.2
		c46.3-56.5,111.4-127.8,226.3-247.9c163.1-170.8,223.4-241.6,292.3-342.6c40.3-59.5,81.6-134,102.2-184.2c5.9-14.4,17-34.6,24.3-45
		c21.1-29.6,27.4-64.5,25-142c-2.4-84.3-1.5-103,6.2-125.6c7.6-22,20.7-34.1,44.1-40c20.9-5,45.2,1.3,63.7,16.8l13.6,11.4l-7.2,49.8
		c-15.3,98.9-53.8,216.8-104.9,318.3c-96,190.8-213.7,341.3-517.5,660.2c-46.2,48.4-95.4,111.7-214.2,275.4
		c-111,153.5-304.2,436.1-301.1,441.6c0.9,1.6,5.3,0.4,9.6-2.4c10-6.4,17.3-1.7,9.9,6.3c-7.7,8.1-3.3,13.7,21.7,27.3
		c56.2,29.9,132,40.3,360.5,48.6c85.4,3.4,160.9,11.8,157.1,17.8c-1.9,2.7-12.8,12.7-24.6,21.9c-11.3,9.3-22.6,21.6-24.7,27l-4.2,10
		l14.7,10.4c15.6,10.3,39.6,20.6,112.9,48.5c62.4,23.5,85.4,38.1,106.4,67.9c27,38.3,97,101.1,168.3,151.8
		c48.3,33.9,76.2,49.6,119.2,66.6c19.1,7.5,34.5,14.6,34,15.3c-2.9,7.6-29.9,32.1-44.4,40.2c-36.1,20.3-84.1,23.1-227.8,13.4
		c-51-3.2-100.4-5.9-110.3-5.5c-9.9,0.5-34.4-3.2-55-8.1c-35.3-8.6-63.6-10.5-73.6-4.9c-6.8,3.8-15.3,28.5-14.7,42.6
		c0.9,29.6,44,98.7,90.2,144c12.7,12.8,36.4,31.7,52.8,42c18.4,11.7,30,20.9,30.7,25.2c0.3,3.6,25.8,54.2,56.7,112.3
		c55.9,106.4,75.9,149.5,92.1,198.8c10.1,31.6,20.9,77.3,18.7,78.6c-1,0.5-11.3,1.7-23.2,2.4c-12.7,0.8-44.5-3.8-76.2-11.1
		c-81.8-18.9-120.2-25.4-143.6-23.2c-44.7,3.5-46.5,27.4-9.1,114.5c9.1,21.6,21.7,58.2,27.9,81.4c5.9,23.4,13.8,48.7,16.8,56.3
		c3.3,7.5,6.3,17.2,6.7,21.7c0.4,4.5,1.8,16.8,3,28c1.3,10.7,1,24.4-0.2,29.8c-4.3,18.1,9.9,174.6,21.2,231.9
		c6.1,30.5,9.8,56.8,8.3,58.5c-1.2,1.5-4.4,11-6.5,20.2c-2.2,9.7-8.9,24.9-14.7,34.1c-22.6,36-21,103.8,6.3,251.3
		c16.6,91.6,28.8,187.3,24.3,189.8c-3.4,1.5-50.9-21.9-71.2-35.5c-46.9-31.4-83.2-72-175.7-196c-32.7-43.9-69.9-91.3-82-105.3
		l-22.6-25.1l-32.9-92.6c-18.5-51.1-41.2-110.4-50.9-132.1c-19.9-45.2-56.3-104.9-76.2-125.1c-30.3-30.5-63.5-44.5-96.8-40.2
		c-7.6,0.9-18.5-2.8-30.3-10.1c-16.7-10.1-20.6-14.7-33.8-39.1c-18.6-33.2-21.7-53.1-23.4-143.7c-1.4-69.6-6.2-101.7-20.9-132.4
		c-9.2-20.2-11.3-22.5-28.3-30.8c-14.1-6.9-18.8-11.5-21.8-20c-2.5-7.5-7.2-12.9-13.4-16.2c-4.9-2.7-17.7-16.4-28-30.9
		c-22.3-30.7-35.9-42.1-53.1-44.8c-15.8-2.6-28.5,6.7-44.8,31.9c-20,31.6-33,106.7-25.1,149.3c1,6.2,3,45.4,4.7,86.8
		c2.7,69.7,4.5,82.7,8.8,67.1c2.3-8.1,6.1-6.4,16.8,8c11.8,15.8,11.3,32.2-1.3,39.3c-5.2,2.9-11.5,4.4-14.6,3.5
		c-3.5-1-5.4,12.3-4.9,46.4c0.6,134-8.8,216.1-36.1,311.1c-16.9,59.1-19,70.4-16.3,97.8c6,73.4-16.2,110-58.3,95.5
		c-20.2-7.3-39.1-21.3-69.9-52.8c-53.3-54.9-76-83.3-98.5-124.9c-25.1-46.1-38.2-61.2-58.8-67c-13.9-3.6-16.2-3.2-30.1,6.7
		c-38.5,28-73.6,103.7-84.6,182.3c-2.5,17.5-6.9,33.1-10.1,34.9c-7.7,4.3-31.4,42.2-66.8,108.3c-39.7,73.6-57.2,98.2-80.1,113.2
		c-16.4,10.9-18.7,11.3-33.6,7.4l-16.1-4.5l-14.1-31.1c-23-50.7-41.6-83.1-52-89.5c-5.1-3.1-15.8-5.5-23.6-5
		c-29.9,1.9-60.6,34.8-93.4,99.5c-21,41.9-43,72.9-56.9,80.7c-13.5,7.6-35.8,5.7-54.2-4.4c-24-13.3-37.4-10.8-61.3,11.5
		c-59.7,56-222.4,180-325.6,248.5c-69.8,46.4-131,83.7-132.4,80.7C814,13164.1,847,13044.7,888,12900.4z M903.2,10962.5
		c3.1-3.5,6-12.7,6.6-20.7c0.1-8.1,1.9-15.5,3.5-16.4c1.6-0.9,2.2-2.9,1.3-4.5c-1.6-2.9-10.5,4.6-20.2,16.9
		c-5,6.2-5.8,28.2-1.2,29.5C895.2,10967.8,899.6,10965.8,903.2,10962.5z"/>
</g>
</svg>
