<?xml version="1.0" encoding="utf-8"?>
<!-- Generator: Adobe Illustrator 23.0.1, SVG Export Plug-In . SVG Version: 6.00 Build 0)  -->
<svg version="1.1" id="Layer_1" xmlns="http://www.w3.org/2000/svg" xmlns:xlink="http://www.w3.org/1999/xlink" x="0px" y="0px"
	 viewBox="0 0 394.1 460" style="enable-background:new 0 0 394.1 460;" xml:space="preserve">
<style type="text/css">
	.st0{fill:#AF4D4F;}
	.st1{fill:#981B1E;}
</style>
<g transform="translate(0.000000,1280.000000) scale(0.100000,-0.100000)">
	<path class="st0" d="M97.5,12484.1l18.3-272.6l-17-12.6c-15.7-11.8-17.2-13.9-22.9-35c-7.2-26.7-4.8-43,17.3-118.1
		c9.3-31.4,18.2-66.7,19.5-78.6c1.8-11.9,5.5-27.9,8.3-35.4c11.2-28.1,11.6-54,0.8-66.2c-15.4-17.5-59.8-23.7-140.8-18.5
		c-25,1.3-46.2,1.8-46.9,0.9c-0.7-0.8,5.6-14.3,14.7-29.7c32.8-57.4,57.2-108.4,101.9-212.7c25.5-58.9,55.7-125.3,67.1-147.6
		c19.1-37,29.1-54.2,73-121.8c15.1-23.1,23.1-45.9,21-58.4c-6.1-36-127.3-24.9-274.6,25.3c-22,7.5-40.4,13.4-41.2,13.6
		c-0.5,0-4.4-8.9-8.9-20.2c-16.1-42.4-0.3-93.8,65.2-208.5c45.5-79.9,58.1-109.7,57.7-135.9l-0.3-20.4l49.4-42.9
		c47.2-41,52.6-44.8,125.3-87c114.2-66,155-96.9,186.4-141.8c12.4-17.8,29.5-55,31.7-69.2l1.8-11.4l-38.2-1.4
		c-38.2-1.4-89.3,3.2-119.1,11.2c-8.8,2.3-25.8,9.9-38,17.2c-17.7,10.7-21.7,11.7-21.9,6.5c-0.1-7.3,1.3-8-50.1,13.5
		c-31.8,13.2-206.1,101.5-214.2,108.6c-8.6,7.6-11.8,0.6-11.8-24.1c0.2-48.4-6.7-59.6-40.1-64.7c-27.5-3.9-31.2-3.1-104.2,23.2
		c-76.7,27.6-103.6,34.5-132.1,33.4c-17-0.8-28-3.9-38.8-11.1c-13.6-8.7-15.9-9.1-26-2.7c-19.1,11.9-57.1,20.7-88.2,20
		c-16.5-0.3-56.2-6.2-88.2-13c-32.6-6.8-70.7-12.7-85.1-12.8c-25.9-0.4-52.9,8.7-68.8,22.6c-15.5,13.7-105.1,37.3-119.9,31.6
		c-18.4-6.9-22.6-22.9-11.9-43.2c7.2-14.2,80.4-86,166.9-164c40.9-36.9,90.9-85.3,111.7-108.1c39.1-42.3,112-108.3,140.1-126.7
		l15.9-10.5l-19.6-21.7c-19.1-21.1-19.3-21.9-17.4-38.3c2.1-16.1,2.9-17.4,22.8-32.9c16-12.1,34.9-21.3,78.1-37.7
		c31.4-11.9,67.7-27.1,81.3-33.6c13.2-6.2,42.2-16.4,64.3-22.1c47.7-12.9,67.9-25.2,73.9-45.8c6.3-20.8,0.5-36.4-24.5-67.6
		c-28.6-35.4-59.5-56.5-115.2-78.4c-22.5-8.8-41.1-16.5-41.6-17.1c-0.7-0.8,23.3-8.7,53.5-18c102.3-30.9,169.8-37.6,349-33.7
		c190.7,4.1,266-2.6,292.7-26c15-13.2,13.1-28.2-7.4-64.9c-5.2-9.2-43.3-56-87.9-107.3c-43.4-49.9-99.2-116.1-124.1-147.3
		c-48.5-60.7-53.1-69.9-44.6-89.3c13.5-30,65.6-21.7,196.1,30.4c78.4,31,100.6,37.1,110.2,29.6c27.2-20.5,52.2-13.9,157.4,41.3
		c89.2,46.6,126.3,60.2,138,50c2.2-2,6.1-9.8,8.7-17.5l3.8-13.6l26.7,4.6c74.4,12.4,158.4,70.4,245.8,169.8
		c36.6,41.6,75.8,96.3,96.8,135.9c6.3,11.7,12.3,21.2,13.3,21.3c3.4,0.5,46.3-76.1,68-120.8c11.8-24.1,42.3-92.4,68.7-151.4
		c25.8-59.1,53.9-122.3,62.7-140.3c8.5-17.8,20.3-46.4,25.5-63.3c14.4-44.1,63.7-159.9,89.1-209.3c33.5-64.9,82.3-148.2,169.7-289.6
		c124-201.1,168.2-282.8,214.5-395.9c27.1-66.6,51.9-148.1,61.6-201.4c2.8-15.3,9.5-37.4,14.4-49.1c14.5-33.4,13.3-68.8-5.2-144.1
		c-19.9-82-22.9-100.5-20.1-124.1c2.8-23.1,13.2-37.7,34.8-48.3c19.5-9.2,44.5-8.1,65.8,3.2l15.7,8.3l3.3,50.2
		c5.6,99.9-7.5,223.2-36.3,333.2c-54.1,206.6-137.9,378.3-368.7,753.5c-35.1,56.9-70.1,129.1-152.2,314
		c-76.6,173.2-206.7,489.9-202.5,494.6c1.2,1.4,5.3-0.7,8.9-4.4c8.4-8.4,16.6-5.2,11,4.1c-5.9,9.6-0.4,14.1,26.9,22.2
		c61.2,17.5,137.5,12,362.7-27.5c84.2-14.5,159.9-22,157.4-15.3c-1.2,3.1-9.9,15.1-19.5,26.5c-9.1,11.5-17.6,25.8-18.5,31.6l-2,10.6
		l16.6,7.1c17.4,6.9,43,11.9,120.5,24c65.9,10,91.5,19.5,118.2,44.3c34.4,31.8,116,78.7,196.2,113.4c54.3,23.1,84.9,32.7,130.5,40.3
		c20.2,3.4,36.7,7.1,36.4,7.8c-1.3,8-22.6,37.6-35.1,48.6c-31.1,27.3-77.5,40.1-220,60.5c-50.5,7.5-99.5,15.1-109,17.6
		c-9.6,2.5-34.3,4.1-55.5,3.5c-36.3-1-64.4,2.9-73,10.5c-5.8,5.1-9.1,31.1-5.5,44.7c7.1,28.7,63.5,87.4,118.2,122
		c15.1,9.9,42.2,23.4,60.4,30.1c20.5,7.6,33.7,14.2,35.2,18.2c1.1,3.5,36.5,47.7,78.8,98c76.8,92.4,105.3,130.4,131.5,175.3
		c16.5,28.8,36.6,71.2,34.6,72.9c-0.8,0.7-10.7,4-22.2,7.2c-12.3,3.4-44.4,5.5-76.8,5c-84-1.5-122.9,0.2-145.3,7.2
		c-43,12.7-39.8,36.5,15,113.9c13.4,19.2,33.3,52.4,44.2,73.8c10.7,21.6,23.6,44.7,28.1,51.6c4.8,6.6,9.7,15.6,11,19.8
		c1.3,4.3,5.3,16.1,8.8,26.8c3.5,10.2,6.1,23.7,6,29.2c-0.4,18.6,46,168.8,69,222.4c12.3,28.6,21.5,53.5,20.3,55.5
		c-0.9,1.8-2.1,11.7-2.1,21.1c-0.1,9.9-3.5,26.2-7.3,36.5c-14.6,39.9,1.1,105.9,58.4,244.5c35.3,86.1,67.2,177.2,63.3,180.6
		c-3,2.2-54.3-10.8-77-19.9c-52.4-20.9-96.4-53.1-212.7-155.1c-41.2-36.2-87.4-74.8-102.1-85.9l-27.3-19.8l-51.5-83.7
		c-28.7-46.1-63.3-99.4-77.3-118.6c-28.9-40.1-76.9-90.9-100.6-106.5c-35.9-23.5-71.4-30.3-103-19.2c-7.2,2.4-18.7,1.2-31.7-3.6
		c-18.4-6.4-23.2-10.1-41.2-31.2c-25.1-28.6-32.3-47.4-52.9-135.7c-15.8-67.8-27.2-98.1-48-125.1c-13.3-17.9-15.8-19.6-34.1-24.2
		c-15.2-3.9-20.7-7.4-25.5-15c-4-6.8-9.8-11.1-16.4-13.1c-5.4-1.7-20.7-12.3-33.8-24.4c-28.2-25.4-43.9-33.7-61.3-32.7
		c-16,0.8-26.5,12.4-37.2,40.6c-13,35.1-10,111.2,6.5,151.3c2.2,5.9,12.4,43.8,22.6,84c17.1,67.6,21.6,80,22.6,63.8
		c0.5-8.3,4.7-7.6,18.1,4.3c14.9,13,17.8,29.2,6.9,38.7c-4.4,3.9-10.4,6.7-13.5,6.5c-3.7-0.2-2.7,13.2,4.9,46.4
		c28.5,131,36.4,213.2,29.5,311.8c-4.2,61.3-3.9,72.8,4.4,99c21.1,70.5,7,111-37.2,105.5c-21.3-2.9-42.7-12.7-79.3-37
		c-63.5-42.6-91.7-65.6-122.4-101.6c-34.1-39.9-50.1-51.9-71.5-53.3c-14.4-0.7-16.5,0.3-28.1,12.9c-31.9,35.4-50.4,116.7-44.8,195.9
		c1.2,17.6,0.2,33.8-2.6,36.2c-6.7,5.9-21.9,47.8-42.8,119.8c-23.5,80.2-35.5,108-54.8,127.5c-13.7,14-15.9,15-31.3,14.2l-16.7-1.1
		l-20.2-27.5c-33-44.8-57.9-72.6-69.5-76.8c-5.6-1.9-16.6-2.1-24.1,0c-28.8,8.1-52,46.7-70.6,116.7c-11.8,45.3-26.9,80.3-38.8,90.8
		c-11.7,10.3-33.8,13-53.9,7c-26.2-8-38.9-2.8-57.6,24.1c-46.7,67.2-180.1,222.4-266.7,310.8c-58.6,59.9-110.7,109.2-112.7,106.5
		C80,12757.5,87.4,12633.8,97.5,12484.1z M-291.2,10585.6c2.4-4,3.2-13.7,2.2-21.6c-1.6-8-1.4-15.5,0-16.8c1.4-1.2,1.5-3.3,0.3-4.7
		c-2.2-2.5-9.3,6.7-16.3,20.7c-3.6,7.1,0.2,28.8,4.9,29.1C-298,10592.5-294.1,10589.6-291.2,10585.6z"/>
</g>
<g transform="translate(0.000000,1280.000000) scale(0.100000,-0.100000)">
	<path class="st1" d="M3603.7,10519.3l-267.3-56.1l-14.9,15.1c-13.8,14-16.2,15.1-37.8,17.8c-27.4,3.4-43.3-1.2-114.5-33.5
		c-29.7-13.6-63.5-27.3-75.2-30.2c-11.6-3.5-26.9-9.3-33.9-13.1c-26.3-15-51.9-19-65.5-10.1c-19.5,12.8-31.8,55.9-37.9,136.8
		c-2.2,24.9-4.7,46-5.6,46.6c-0.9,0.6-13.4-7.6-27.4-18.7c-52.2-40.4-99.4-71.8-196.4-130.6c-54.7-33.5-116.3-72.6-136.8-87
		c-34-24.1-49.6-36.4-110.5-89.3c-20.8-18.2-42.3-29.3-54.9-29c-36.5,1-42.4,122.6-13.2,275.4c4.4,22.8,7.6,41.9,7.7,42.7
		c-0.1,0.5-9.5,3.1-21.3,6c-44.3,10.1-92.9-12.8-197.4-93.7c-72.7-56.1-100.5-72.8-126.5-76.1l-20.3-2.6l-35.6-54.9
		c-34-52.4-37-58.4-68.7-136.2c-49.5-122.3-74.4-167-114.4-204.4c-15.9-14.8-50.3-36.8-64.1-41l-11.1-3.4l-6.7,37.6
		c-6.7,37.6-9.3,88.8-5.5,119.5c1.1,9,6.2,26.9,11.7,40.1c8.1,19,8.6,23.1,3.3,22.6c-7.3-1-7.8-2.4,6.4,51.5
		c8.6,33.3,71.8,218.2,77.7,227.2c6.3,9.6-1.1,11.8-25.5,8.3c-47.9-7-60-1.7-69.6,30.7c-7.7,26.7-7.4,30.5,8.4,106.4
		c16.6,79.8,19.7,107.4,14.7,135.4c-3.2,16.7-7.8,27.2-16.4,36.9c-10.5,12.2-11.3,14.5-6.3,25.4c9.1,20.6,12.5,59.4,7.5,90.2
		c-2.6,16.3-14,54.8-25.2,85.6c-11.3,31.3-22.4,68.2-24.5,82.5c-4,25.6,1.2,53.6,12.8,71.2c11.4,17.3,22.3,109.2,14.6,123.1
		c-9.4,17.3-25.9,19.2-44.4,5.8c-13.1-9.1-73.9-91.6-139.2-188.1c-30.9-45.6-71.8-101.9-91.5-125.7c-36.4-44.6-91.7-126-105.9-156.4
		l-8.2-17.2l-24.2,16.4c-23.6,15.9-24.4,16-40.4,11.9c-15.7-4.3-16.8-5.3-29.4-27.2c-9.7-17.5-16.3-37.5-26.4-82.6
		c-7.4-32.8-17.4-70.9-21.9-85.1c-4.3-14-10.4-44.1-12.9-66.7c-6.1-49-15.5-70.7-35.1-79.6c-19.7-9.2-36-5.6-70.3,14.8
		c-39,23.4-64.2,51.1-93.7,103.2c-11.8,21-22.1,38.4-22.7,38.8c-0.9,0.6-5.4-24.3-10.4-55.5c-16.3-105.6-13.5-173.4,15.3-350.3
		c30.6-188.3,34.5-263.8,15-293.5c-11-16.7-26.1-16.9-65.3-1.8c-9.9,3.8-61.4,35.1-118.5,72.1c-55.5,36-128.8,82-163.2,102.4
		c-66.9,39.6-76.7,42.9-94.6,31.7c-27.9-17.5-12.4-68,57.4-189.9c41.6-73.3,50.7-94.4,44.7-105c-16.5-29.8-6.5-53.7,62.8-150.1
		c58.6-81.9,77.2-116.7,68.7-129.7c-1.6-2.5-8.9-7.4-16.1-11.1l-13-5.6l8.3-25.8c22.6-71.9,91.8-147.1,202.4-219.8
		c46.3-30.5,105.9-61.7,148-77c12.4-4.6,22.7-9.2,22.9-10.2c0.9-3.3-68.9-56.4-110.2-84.2c-22.3-15-85.6-54.8-140.4-89.1
		c-54.9-33.8-113.6-70.5-130.2-81.6c-16.4-10.9-43.1-26.5-59.1-34.1c-41.7-20.4-149.5-85.3-194.9-117.4
		c-59.6-42.2-135.3-102.2-263.1-208.4c-181.8-150.8-256.6-206-362.2-267.6c-62.2-36.1-139.4-72.1-190.9-89.1
		c-14.7-4.9-35.7-14.6-46.6-21.1c-31-19-66.3-22.8-143.4-15c-83.9,8.3-102.7,8.7-125.7,2.6c-22.5-6-35.5-18.3-43-41.2
		c-6.4-20.5-1.9-45.2,12.3-64.7l10.4-14.4l50.2,3.7c99.7,8.3,220,38.5,324.9,82.4c197,82.4,355.4,189.3,694.8,470.1
		c51.5,42.7,118.1,87.4,289.7,194.4c160.8,100,456.4,272.9,461.6,269.5c1.5-1,0-5.3-3.1-9.5c-7.1-9.5-2.9-17.1,5.6-10.3
		c8.7,7.1,13.9,2.3,25.7-23.5c25.9-58.2,31-134.5,23.3-363c-2.6-85.4,0.5-161.4,6.8-158c2.9,1.7,13.6,11.9,23.5,23
		c10.1,10.6,23.1,21.1,28.7,22.7l10.2,3.4l9.3-15.4c9.2-16.2,17.8-40.9,40.5-116c19.1-63.9,32-87.9,60.3-110.9
		c36.3-29.6,94.1-103.9,139.7-178.5c30.5-50.6,44.2-79.5,58.1-123.6c6.2-19.5,12.1-35.4,12.8-35c7.8,2.4,34.1,27.6,43.2,41.5
		c22.7,34.6,28.9,82.3,29.3,226.3c0.4,51.1,1.1,100.6,2.3,110.4c1.2,9.9-0.7,34.5-4.3,55.4c-6.1,35.8-6.1,64.1,0.2,73.7
		c4.3,6.5,29.5,13.3,43.5,11.7c29.4-3,95.4-50.8,137.3-100c11.9-13.6,29.1-38.6,38.2-55.6c10.4-19.2,18.8-31.4,23-32.4
		c3.6-0.6,52.3-29.5,108.1-64.4c102.2-63.2,143.8-86.1,191.9-105.8c30.8-12.3,75.6-26.3,77.1-24.1c0.6,0.9,2.5,11.2,4.1,23
		c1.7,12.6-0.7,44.7-5.7,76.8c-13.1,83-16.9,121.7-13.1,144.9c6.6,44.3,30.6,44.5,114.8,1c20.9-10.6,56.6-25.7,79.3-33.5
		c22.9-7.5,47.6-17.1,55-20.7c7.2-3.8,16.8-7.5,21.2-8.2c4.4-0.7,16.6-3,27.7-4.9c10.6-2.1,24.3-2.7,29.7-1.9
		c18.3,3,173.5-22.1,229.8-37.4c30-8.2,56-13.8,57.8-12.3c1.6,1.1,11.3,3.7,20.6,5.1c9.8,1.5,25.5,7.1,35.1,12.3
		c37.5,20,105,13.7,250.2-23.8c90.2-23,184.8-41.9,187.7-37.5c1.7,3.3-18.3,52.3-30.4,73.5c-28,48.9-66,88.1-183.2,189
		c-41.6,35.7-86.2,76.1-99.3,89.2l-23.4,24.3l-90.1,39.3c-49.7,22-107.3,48.8-128.2,60c-43.7,23-100.7,63.5-119.5,84.7
		c-28.3,32.3-39.9,66.5-33.3,99.3c1.4,7.5-1.5,18.7-8,30.9c-8.9,17.4-13.3,21.5-36.6,36.5c-31.8,20.9-51.4,25.4-141.7,33.4
		c-69.4,6.2-101,13.3-130.6,30.1c-19.5,10.6-21.6,12.9-28.7,30.4c-5.9,14.5-10.2,19.5-18.4,23.2c-7.3,3-12.4,8.1-15.3,14.5
		c-2.4,5.1-15.1,18.8-28.9,30.1c-29.1,24.4-39.5,38.8-41,56.1c-1.4,16,8.6,27.9,35,42.5c32.9,17.7,108.7,25.4,150.7,14.6
		c6.2-1.4,45.1-6.2,86.3-10.7c69.4-7.6,82.2-10.2,66.3-13.5c-8.2-1.7-6.8-5.7,6.8-17.3c15-12.9,31.4-13.5,39.3-1.5
		c3.2,4.9,5.2,11.2,4.5,14.3c-0.7,3.6,12.7,4.5,46.6,1.6c133.7-10,216.2-6.3,312.8,14.2c60.1,12.7,71.6,14,98.7,9.5
		c72.8-11.1,110.9,8.5,99.3,51.5c-5.9,20.7-18.5,40.5-47.7,73.4c-51,57-77.7,81.6-117.7,107c-44.3,28.2-58.4,42.4-62.7,63.4
		c-2.7,14.1-2.1,16.4,8.8,29.6c30.6,36.5,108.6,66.2,187.8,71.6c17.6,1.2,33.5,4.5,35.5,7.6c4.9,7.4,44.3,28.4,112.7,59.1
		c76.2,34.4,102,50.2,118.6,72c12,15.6,12.6,17.8,9.7,33l-3.4,16.4l-30,16.2c-49,26.4-80,47.3-85.7,58.1c-2.7,5.3-4.4,16.2-3.3,23.9
		c4,29.7,39,58,105.8,86.2c43.3,18,75.7,37.8,84.5,51.1c8.5,13,8.2,35.3-0.6,54.3c-11.5,24.8-8.1,38.1,15.8,60.4
		c60,55.7,195.1,209.3,270.6,307.4c51.1,66.4,92.7,124.9,89.7,126.4C3871.9,10574.8,3750.5,10550.2,3603.7,10519.3z M1669.5,10639.7
		c-3.7-2.9-13.1-5.1-21.1-5.2c-8.1,0.5-15.6-0.8-16.6-2.4c-1-1.5-3.1-2-4.6-1c-2.8,1.8,5.4,10.2,18.2,19c6.5,4.6,28.6,3.8,29.5-0.8
		C1675.3,10647.4,1673,10643.2,1669.5,10639.7z"/>
</g>
</svg>
